arm26_states
nRows=20
nColumns=17

# SIMM Motion File Header:
name arm26_states
datacolumns 17
datarows 20
otherdata 1
range 0.02999999999999999900 0.03132766999999999500
endheader
time	r_shoulder_elev	r_elbow_flex	r_shoulder_elev_u	r_elbow_flex_u	TRIlong.activation	TRIlong.fiber_length	TRIlat.activation	TRIlat.fiber_length	TRImed.activation	TRImed.fiber_length	BIClong.activation	BIClong.fiber_length	BICshort.activation	BICshort.fiber_length	BRA.activation	BRA.fiber_length
      0.02999999999999999900	     -0.31654740221779104000	      1.05299712910101100000	      1.77421304438838720000	      7.57535390076761940000	      0.01141734973259945700	      0.13665730717183805000	      0.02398247264990911000	      0.07077082518753476100	      0.02596251892452610500	      0.06581785073524389100	      0.00003182780882241437	      0.14845447550111082000	      0.00003182780882241437	      0.14773473436627507000	      0.00003182780882241437	      0.09318503964964584800
      0.03000001000000000100	     -0.31654738447565983000	      1.05299720485456130000	      1.77421320242415300000	      7.57535617615605440000	      0.01141734913387704000	      0.13665730721883568000	      0.02398247100912132300	      0.07077082523419871200	      0.02596251716127000200	      0.06581785078007527900	      0.00003182780087328614	      0.14845447548348528000	      0.00003182780086582126	      0.14773473435218343000	      0.00003182780086546316	      0.09318503963078322800
      0.03000003000000000000	     -0.31654734899139264000	      1.05299735636173030000	      1.77421351849484730000	      7.57536072693550280000	      0.01141734793642588800	      0.13665730731283096000	      0.02398246772755721300	      0.07077082532752662600	      0.02596251363476919500	      0.06581785086973807000	      0.00003182778502197348	      0.14845447544823417000	      0.00003182778495478957	      0.14773473432400011000	      0.00003182778495156670	      0.09318503959305796100
      0.03000007000000000000	     -0.31654727802283927000	      1.05299765937634150000	      1.77421415063288480000	      7.57536982850471400000	      0.01141734554149831400	      0.13665730750082156000	      0.02398246116447483000	      0.07077082551418248400	      0.02596250658181317000	      0.06581785104906369400	      0.00003182775350712332	      0.14845447537773193000	      0.00003182775314134436	      0.14773473426763342000	      0.00003182775312379767	      0.09318503951760735700
      0.03000015000000000000	     -0.31654713608565666000	      1.05299826540665590000	      1.77421541489555380000	      7.57538803168438870000	      0.01141734075154208000	      0.13665730787680302000	      0.02398244803849341700	      0.07077082588749432400	      0.02596249247608348500	      0.06581785140771506700	      0.00003182769122852270	      0.14845447523672722000	      0.00003182768954892656	      0.14773473415489985000	      0.00003182768946835507	      0.09318503936670584400
      0.03000030999999999900	     -0.31654685221098794000	      1.05299947747165330000	      1.77421794336727070000	      7.57542443820875460000	      0.01141733117122527600	      0.13665730862876699000	      0.02398242178726400800	      0.07077082663411848900	      0.02596246426535356000	      0.06581785212501838100	      0.00003182756967571325	      0.14845447495471700000	      0.00003182756250198114	      0.14773473392943193000	      0.00003182756215785182	      0.09318503906490163700
      0.03000063000000000000	     -0.31654628446043698000	      1.05300190161912370000	      1.77422300009622070000	      7.57549725191753430000	      0.01141731200897432400	      0.13665731013269899000	      0.02398236928773884300	      0.07077082812736877600	      0.02596240784681147500	      0.06581785355962721500	      0.00003182733858760553	      0.14845447439069326000	      0.00003182730895964843	      0.14773473347849292000	      0.00003182730753837304	      0.09318503846128849100
      0.03000127000000000000	     -0.31654514895448083000	      1.05300674998396640000	      1.77423311269619480000	      7.57564288197525750000	      0.01141727367800310400	      0.13665731314057941000	      0.02398226430042303300	      0.07077083111387713600	      0.02596229502139825100	      0.06581785642885372400	      0.00003182692448098606	      0.14845447326263245000	      0.00003182680408119485	      0.14773473257660216000	      0.00003182679830552630	      0.09318503725404328500
      0.03000254999999999900	     -0.31654287792315416000	      1.05301644699326700000	      1.77425333446452620000	      7.57593415265107680000	      0.01141719699018388400	      0.13665731915640594000	      0.02398205437272860400	      0.07077083708692490100	      0.02596206941725472100	      0.06581786216734203400	      0.00003182628854254191	      0.14845447100645617000	      0.00003182580314897045	      0.14773473077276963000	      0.00003182577986427568	      0.09318503483947721000
      0.03000510999999999800	     -0.31653833578286383000	      1.05303584213039290000	      1.77429376427541200000	      7.57651673624201120000	      0.01141704351104219300	      0.13665733118832274000	      0.02398163470508149800	      0.07077084903314398400	      0.02596161839569235300	      0.06581787364445927700	      0.00003182577980163954	      0.14845446649387367000	      0.00003182383658193479	      0.14773472716489988000	      0.00003182374307954220	      0.09318503001004241300
      0.03001022999999999900	     -0.31652925119189934000	      1.05307463687924830000	      1.77437456899960040000	      7.57768207236356960000	      0.01141673613877672300	      0.13665735525321873000	      0.02398079612069822800	      0.07077087292607114900	      0.02596071709941063400	      0.06581789659925151000	      0.00003183406049702693	      0.14845445746759312000	      0.00003182004462697440	      0.14773471994833612000	      0.00003181966990111710	      0.09318502034996249700
      0.03002047000000000000	     -0.31651108076974632000	      1.05315224427940660000	      1.77453595890222200000	      7.58001342022931900000	      0.01141611973856468900	      0.13665740338732021000	      0.02397912195512695900	      0.07077092071383964100	      0.02595891749377317700	      0.06581794251102914000	      0.00003189980609609659	      0.14845443940777495000	      0.00003181302534917394	      0.14773470551186874000	      0.00003181152510820082	      0.09318500102496309100
      0.03004095000000000000	     -0.31647473497503331000	      1.05330753072179380000	      1.77485786088677090000	      7.58467881743369170000	      0.01141488031739387900	      0.13665749967323831000	      0.02397578563317833200	      0.07077101629669900500	      0.02595533022663446300	      0.06581803434305511000	      0.00003222779926281459	      0.14845440323618378000	      0.00003180124464762935	      0.14773467662523304000	      0.00003179524177623584	      0.09318496235561961300
      0.03008191000000000000	     -0.31640202366783177000	      1.05361839043293440000	      1.77549815656260560000	      7.59402041071646390000	      0.01141237500787872600	      0.13665769231973160000	      0.02396916099737314200	      0.07077120748904425200	      0.02594820344037366400	      0.06581821803858517500	      0.00003366791815670242	      0.14845433050543971000	      0.00003178670926795440	      0.14773461879445879000	      0.00003176270011283901	      0.09318488493965915200
      0.03016382999999999900	     -0.31625652285219713000	      1.05424125922364300000	      1.77676474008589460000	      7.61274675397709370000	      0.01140725864654042200	      0.13665807794138315000	      0.02395610352888262500	      0.07077158995911432500	      0.02593414063191206900	      0.06581858553649044800	      0.00003966974113895964	      0.14845418211283490000	      0.00003182055169589209	      0.14773450287721121000	      0.00003169771666879533	      0.09318472979942490900
      0.03032766999999999800	     -0.31596521375838571000	      1.05549161077234000000	      1.77924209782491770000	      7.65037202412440640000	      0.01139660396378210400	      0.13665885073439116000	      0.02393075397391058000	      0.07077235507456904100	      0.02590677625067469600	      0.06581932080984372000	      0.00006404108107906999	      0.14845386341999456000	      0.00003244855593663888	      0.14773426944834017000	      0.00003156814835847828	      0.09318441829104670600
      0.03057766999999999800	     -0.31551994493697039000	      1.05741142462910040000	      1.78287996020545640000	      7.70822875563268180000	      0.01137926646829120000	      0.13666003490980866000	      0.02389403213360517800	      0.07077352228166426700	      0.02586696941958013500	      0.06582044281600853100	      0.00013248694270772278	      0.14845328171034375000	      0.00003485287878962636	      0.14773390643250889000	      0.00003137146271438113	      0.09318393982950777500
      0.03082766999999999800	     -0.31507378793168322000	      1.05934577048244540000	      1.78634798649559380000	      7.76662948169830080000	      0.01136063163052323400	      0.13666122665227343000	      0.02385966350740290100	      0.07077468805443240500	      0.02582950305446021800	      0.06582156390610617600	      0.00023787286729887945	      0.14845253350795054000	      0.00003896612281225391	      0.14773353129499558000	      0.00003117600252203219	      0.09318345759416589400
      0.03107766999999999800	     -0.31462678487269335000	      1.06129478559425430000	      1.78964886937187020000	      7.82558487673130990000	      0.01134070753358141500	      0.13666242759495792000	      0.02382763343358123400	      0.07077585119997693900	      0.02579436257301976500	      0.06582268301307452100	      0.00037928680145256051	      0.14845157529355363000	      0.00004474609459070279	      0.14773314034783636000	      0.00003098176014624288	      0.09318297159136178200
      0.03132766999999999500	     -0.31417897717174637000	      1.06325861026982290000	      1.79278565907942910000	      7.88510841179217790000	      0.01131950221020710700	      0.13666363926041783000	      0.02379792734176766300	      0.07077701059314708800	      0.02576153348381871700	      0.06582379913400590600	      0.00055583921044736215	      0.14845037675513709000	      0.00005215164247024843	      0.14773273054993771000	      0.00003078872799939570	      0.09318248181667586300
